<svg width="172" height="87" viewBox="0 0 172 87" fill="none" xmlns="http://www.w3.org/2000/svg">
<path fill-rule="evenodd" clip-rule="evenodd" d="M91.9557 74.5272C101.067 82.7654 112.99 87.2075 125.277 86.9423C131.429 87.073 137.545 85.9845 143.274 83.7401C149.002 81.4957 154.228 78.1398 158.65 73.8662C166.395 66.2196 170.827 55.843 170.993 44.9669C171.159 39.0523 170.146 33.1635 168.012 27.6439C165.878 22.1242 162.666 17.0839 158.563 12.8158C152.801 7.04282 142.355 0.0873409 125.329 0.0873409C113.355 -0.14577 101.758 4.27405 92.9828 12.4154C90.6124 14.5658 88.4068 16.8908 86.3847 19.3708C84.4923 17.0665 82.4387 14.8992 80.2394 12.885C71.1317 4.39119 59.0627 -0.213327 46.6049 0.0525302C40.2176 -0.00324146 33.8799 1.17775 27.9423 3.53021C22.3753 5.77074 17.3446 9.15999 13.1794 13.4763C5.21345 21.94 0.844919 33.16 0.993042 44.7754C0.971561 50.6153 2.20353 56.3918 4.60599 61.716C7.00845 67.0401 10.5256 71.788 14.9203 75.6398C23.0892 82.8634 33.6057 86.8797 44.5158 86.9423C57.2513 87.2556 69.6716 82.9641 79.4908 74.8574C81.8424 72.9119 84.0477 70.7962 86.0888 68.5278C87.9113 70.6532 89.8711 72.6574 91.9557 74.5272ZM97.6311 68.1453C94.698 65.4852 92.0332 62.5439 89.6751 59.3641L78.3069 41.8891C74.5639 36.0292 70.4032 30.0473 65.3023 25.9611C60.0316 21.6656 53.3871 19.4124 46.5875 19.6145C38.0919 19.6145 31.1457 22.501 26.4974 27.9436C22.6219 32.6833 20.5498 38.6393 20.6479 44.758C20.6479 58.2166 32.991 67.2759 44.5158 67.2759C51.7088 67.5218 58.7936 65.4759 64.7452 61.4336C68.4743 58.7076 71.7775 55.4435 74.5465 51.7482L80.9182 61.5033C78.848 63.9496 76.5642 66.2072 74.0939 68.2498C65.7804 75.0937 55.2677 78.7009 44.4984 78.4047C35.6973 78.3367 27.2187 75.0876 20.6306 69.2584C17.1268 66.2084 14.319 62.4428 12.3968 58.2162C10.4747 53.9896 9.48304 49.4002 9.4887 44.758C9.33144 35.3216 12.8522 26.1936 19.3075 19.3016C22.6409 15.8558 26.6622 13.1483 31.1108 11.355C36.0323 9.42024 41.2813 8.45175 46.5701 8.50305C56.8846 8.27494 66.8801 12.0814 74.4247 19.1101C77.5508 22.0121 80.3686 25.2286 82.8333 28.7086L92.8784 44.2711L94.393 46.6013C102.645 59.3644 110.775 67.2585 125.277 67.2585C143.191 67.2585 151.251 54.0956 151.251 44.758C151.489 38.0511 149.068 31.5213 144.514 26.5872C139.97 21.9619 133.511 19.6319 125.277 19.6319C118.688 19.4375 112.26 21.6787 107.223 25.9263C103.689 29.0193 100.596 32.5825 98.0314 36.5159L91.5553 26.4828C93.6733 23.6536 96.0512 21.0281 98.6581 18.6406C105.881 11.9468 115.426 8.31802 125.277 8.52046C139.361 8.52046 147.821 14.0676 152.435 18.7276C155.742 22.1995 158.325 26.2929 160.035 30.7705C161.744 35.2481 162.546 40.0206 162.393 44.8102C162.247 53.4367 158.715 61.6606 152.557 67.7106C148.943 71.207 144.672 73.9538 139.99 75.7922C135.307 77.6307 130.307 78.5247 125.277 78.4221C115.086 78.646 105.196 74.9691 97.6311 68.1453ZM125.277 58.7558C115.075 58.7558 109.626 53.8869 103.098 44.2885V44.2189C110.566 32.8816 115.528 28.0999 125.259 28.152C131.126 28.152 135.548 29.6301 138.421 32.5339C141.399 35.8677 142.933 40.2447 142.686 44.7058V44.8451C142.686 50.5832 137.306 58.7558 125.277 58.7558ZM29.1435 44.7754C29.1435 40.8804 30.4144 28.1694 46.5527 28.1694V28.0998C56.9111 28.0998 62.3776 33.2645 69.5153 44.0627C62.7606 53.5567 56.5281 58.6861 44.4635 58.6861C37.0647 58.6861 29.1435 53.1392 29.1435 44.7754Z" fill="url(#paint0_linear_11_1745)"/>
<defs>
<linearGradient id="paint0_linear_11_1745" x1="17.0256" y1="-3.29009" x2="43.8733" y2="115.411" gradientUnits="userSpaceOnUse">
<stop stop-color="#437FEC"/>
<stop offset="0.38" stop-color="#356FD8"/>
<stop offset="1" stop-color="#184EAE"/>
</linearGradient>
</defs>
</svg>
