<svg width="170" height="121" viewBox="0 0 170 121" fill="none" xmlns="http://www.w3.org/2000/svg">
<path d="M131.317 121H32.5687C14.6082 121 0 106.869 0 89.5014C0.0524648 83.0208 2.0989 76.7141 5.86023 71.4415C9.62155 66.1689 14.9147 62.187 21.0177 60.0388C21.3711 55.572 23.1817 51.3457 26.1701 48.012C29.1586 44.6783 33.1589 42.4223 37.5539 41.5921C39.7599 18.3075 60.1001 0 84.7829 0C110.838 0 132.203 20.535 132.203 45.7861V46.2386C153.047 46.6911 170 63.2757 170 83.6193C170 104.224 152.647 121 131.317 121ZM41.688 50.4674C38.7274 50.4203 35.8673 51.542 33.7254 53.5902C31.5836 55.6384 30.332 58.4486 30.2411 61.4136C30.2419 61.8912 30.2767 62.3681 30.3454 62.8406L30.9359 66.9825L26.8019 67.87C21.8644 68.9603 17.4396 71.6903 14.2455 75.6169C11.0514 79.5436 9.27556 84.4364 9.20609 89.5014C9.20609 101.788 19.6281 111.777 32.5687 111.777H131.317C147.575 111.777 160.846 99.1424 160.846 83.6193C160.846 68.0962 147.645 55.4446 131.317 55.4446C130.157 55.4486 128.997 55.5125 127.843 55.636L122.024 56.2973L122.702 50.4674C122.893 48.9084 122.991 47.3394 122.997 45.7687C122.997 25.5992 105.853 9.22336 84.7829 9.22336C63.7131 9.22336 46.5689 25.6166 46.5689 45.7687V50.9895L41.688 50.4674Z" fill="url(#paint0_linear_11_1774)"/>
<defs>
<linearGradient id="paint0_linear_11_1774" x1="16.0342" y1="-4.63821" x2="65.7997" y2="153.392" gradientUnits="userSpaceOnUse">
<stop stop-color="#437FEC"/>
<stop offset="0.38" stop-color="#356FD8"/>
<stop offset="1" stop-color="#184EAE"/>
</linearGradient>
</defs>
</svg>
