<svg width="170" height="118" viewBox="0 0 170 118" fill="none" xmlns="http://www.w3.org/2000/svg">
<path fill-rule="evenodd" clip-rule="evenodd" d="M86.6622 11.8905C86.1591 12.0238 85.6304 12.0948 85.0849 12.0948C84.5043 12.0948 83.9427 12.0143 83.4108 11.864L58.4604 35.2737H111.53L86.6622 11.8905ZM79.8141 9.08925C79.2887 8.19566 78.9877 7.15639 78.9877 6.04739C78.9877 2.70751 81.7175 0 85.0849 0C88.4523 0 91.1821 2.70751 91.1821 6.04739C91.1821 7.18609 90.8648 8.25128 90.3131 9.16072L118.129 35.2737H155.296C158.664 35.2781 161.893 36.6068 164.274 38.9688C166.656 41.3308 167.995 44.5334 168 47.8738V105.4C167.995 108.74 166.656 111.943 164.274 114.305C161.893 116.667 158.664 117.995 155.296 118H14.7039C11.336 117.995 8.10732 116.667 5.72585 114.305C3.34438 111.943 2.00449 108.74 2 105.4V47.8738C2.00449 44.5334 3.34438 41.3308 5.72585 38.9688C8.10732 36.6068 11.336 35.2781 14.7039 35.2737H51.9222L79.8141 9.08925ZM40.6382 107.084C40.4606 107.086 40.2843 107.054 40.1195 106.988C39.9548 106.922 39.8049 106.824 39.6785 106.7C39.5521 106.577 39.4517 106.429 39.3832 106.267C39.3147 106.104 39.2795 105.93 39.2795 105.753V47.722C39.2581 47.5336 39.2771 47.343 39.3353 47.1623C39.3934 46.9816 39.4893 46.8151 39.6168 46.6737C39.7442 46.5323 39.9003 46.4189 40.0749 46.3414C40.2494 46.264 40.4385 46.2242 40.6297 46.2242C40.8209 46.2242 41.01 46.264 41.1845 46.3414C41.3591 46.4189 41.5152 46.5323 41.6427 46.6737C41.7701 46.8151 41.866 46.9816 41.9241 47.1623C41.9823 47.343 42.0013 47.5336 41.9799 47.722V105.753C41.9799 106.106 41.8386 106.445 41.5869 106.695C41.3353 106.944 40.994 107.084 40.6382 107.084ZM55.0915 107.084C54.7356 107.084 54.3944 106.944 54.1427 106.695C53.8911 106.445 53.7498 106.106 53.7498 105.753V47.722C53.7284 47.5336 53.7474 47.343 53.8055 47.1623C53.8637 46.9816 53.9596 46.8151 54.087 46.6737C54.2145 46.5323 54.3706 46.4189 54.5451 46.3414C54.7197 46.264 54.9088 46.2242 55.1 46.2242C55.2912 46.2242 55.4803 46.264 55.6548 46.3414C55.8294 46.4189 55.9855 46.5323 56.1129 46.6737C56.2404 46.8151 56.3363 46.9816 56.3944 47.1623C56.4525 47.343 56.4715 47.5336 56.4502 47.722V105.753C56.4502 105.93 56.4149 106.104 56.3465 106.267C56.278 106.429 56.1776 106.577 56.0512 106.7C55.9248 106.824 55.7749 106.922 55.6101 106.988C55.4454 107.054 55.2691 107.086 55.0915 107.084ZM83.7262 107.084C83.5486 107.086 83.3723 107.054 83.2075 106.988C83.0428 106.922 82.8929 106.824 82.7665 106.7C82.6401 106.577 82.5397 106.429 82.4712 106.267C82.4027 106.104 82.3675 105.93 82.3675 105.753V47.722C82.3462 47.5336 82.3652 47.343 82.4233 47.1623C82.4814 46.9816 82.5773 46.8151 82.7048 46.6737C82.8322 46.5323 82.9883 46.4189 83.1629 46.3414C83.3374 46.264 83.5265 46.2242 83.7177 46.2242C83.9089 46.2242 84.098 46.264 84.2726 46.3414C84.4471 46.4189 84.6032 46.5323 84.7307 46.6737C84.8581 46.8151 84.954 46.9816 85.0122 47.1623C85.0703 47.343 85.0893 47.5336 85.0679 47.722V105.753C85.0679 106.106 84.9266 106.445 84.6749 106.695C84.4233 106.944 84.0821 107.084 83.7262 107.084ZM97.6723 106.695C97.9239 106.944 98.2652 107.084 98.6211 107.084C98.7987 107.086 98.975 107.054 99.1397 106.988C99.3045 106.922 99.4544 106.824 99.5808 106.7C99.7072 106.577 99.8076 106.429 99.876 106.267C99.9445 106.104 99.9798 105.929 99.9798 105.753V47.722C99.9798 47.545 99.9446 47.3697 99.8764 47.2062C99.8081 47.0427 99.708 46.8942 99.5818 46.7691C99.4556 46.6439 99.3059 46.5448 99.141 46.4771C98.9762 46.4094 98.7995 46.3743 98.6211 46.3743C98.4434 46.3743 98.2676 46.4096 98.1037 46.4775C97.9398 46.5454 97.7911 46.6449 97.6663 46.7703C97.5415 46.8957 97.443 47.0441 97.3766 47.2075C97.3102 47.3709 97.2771 47.5458 97.2793 47.722V105.753C97.2793 106.106 97.4207 106.445 97.6723 106.695ZM68.7543 106.988C68.919 107.054 69.0953 107.086 69.273 107.084C69.6288 107.084 69.9701 106.944 70.2217 106.695C70.4733 106.445 70.6147 106.106 70.6147 105.753V47.722C70.6169 47.5458 70.5839 47.3709 70.5175 47.2075C70.451 47.0441 70.3526 46.8957 70.2278 46.7703C70.1029 46.6449 69.9543 46.5454 69.7904 46.4775C69.6265 46.4096 69.4506 46.3743 69.273 46.3743C68.9126 46.3743 68.567 46.5163 68.3122 46.7691C68.0574 47.0218 67.9142 47.3646 67.9142 47.722V105.753C67.9142 105.929 67.9495 106.104 68.018 106.267C68.0865 106.429 68.1868 106.577 68.3132 106.7C68.4396 106.824 68.5895 106.922 68.7543 106.988ZM127.884 107.084C127.528 107.084 127.187 106.944 126.935 106.695C126.684 106.445 126.542 106.106 126.542 105.753V47.722C126.54 47.5458 126.573 47.3709 126.64 47.2075C126.706 47.0441 126.805 46.8957 126.929 46.7703C127.054 46.6449 127.203 46.5454 127.367 46.4775C127.531 46.4096 127.707 46.3743 127.884 46.3743C128.245 46.3743 128.59 46.5163 128.845 46.7691C129.1 47.0218 129.243 47.3646 129.243 47.722V105.753C129.243 105.929 129.208 106.104 129.139 106.267C129.071 106.429 128.97 106.577 128.844 106.7C128.718 106.824 128.568 106.922 128.403 106.988C128.238 107.054 128.062 107.086 127.884 107.084ZM142.192 106.988C142.357 107.054 142.533 107.086 142.711 107.084C143.067 107.084 143.408 106.944 143.66 106.695C143.911 106.445 144.053 106.106 144.053 105.753V47.722C144.055 47.5458 144.022 47.3709 143.956 47.2075C143.889 47.0441 143.791 46.8957 143.666 46.7703C143.541 46.6449 143.392 46.5454 143.229 46.4775C143.065 46.4096 142.889 46.3743 142.711 46.3743C142.533 46.3743 142.356 46.4094 142.191 46.4771C142.026 46.5448 141.877 46.6439 141.75 46.7691C141.624 46.8942 141.524 47.0427 141.456 47.2062C141.387 47.3697 141.352 47.545 141.352 47.722V105.753C141.352 105.929 141.388 106.104 141.456 106.267C141.525 106.429 141.625 106.577 141.751 106.7C141.878 106.824 142.028 106.922 142.192 106.988ZM113.346 107.084C112.99 107.084 112.649 106.944 112.397 106.695C112.146 106.445 112.004 106.106 112.004 105.753V47.722C111.983 47.5336 112.002 47.343 112.06 47.1623C112.118 46.9816 112.214 46.8151 112.342 46.6737C112.469 46.5323 112.625 46.4189 112.8 46.3414C112.974 46.264 113.163 46.2242 113.355 46.2242C113.546 46.2242 113.735 46.264 113.909 46.3414C114.084 46.4189 114.24 46.5323 114.367 46.6737C114.495 46.8151 114.591 46.9816 114.649 47.1623C114.707 47.343 114.726 47.5336 114.705 47.722V105.753C114.705 105.93 114.669 106.104 114.601 106.267C114.532 106.429 114.432 106.577 114.306 106.7C114.179 106.824 114.029 106.922 113.865 106.988C113.7 107.054 113.524 107.086 113.346 107.084ZM25.6493 106.988C25.8141 107.054 25.9904 107.086 26.168 107.084C26.5238 107.084 26.8651 106.944 27.1167 106.695C27.3683 106.445 27.5097 106.106 27.5097 105.753V47.722C27.5119 47.5458 27.4789 47.3709 27.4125 47.2075C27.3461 47.0441 27.2476 46.8957 27.1228 46.7703C26.998 46.6449 26.8493 46.5454 26.6854 46.4775C26.5215 46.4096 26.3456 46.3743 26.168 46.3743C25.9895 46.3743 25.8129 46.4094 25.648 46.4771C25.4832 46.5448 25.3334 46.6439 25.2072 46.7691C25.0811 46.8942 24.981 47.0427 24.9127 47.2062C24.8444 47.3697 24.8093 47.545 24.8093 47.722V105.753C24.8093 105.929 24.8445 106.104 24.913 106.267C24.9815 106.429 25.0818 106.577 25.2082 106.7C25.3346 106.824 25.4846 106.922 25.6493 106.988ZM14.7039 44.1848C13.7204 44.1893 12.7787 44.5796 12.0848 45.2709C11.391 45.9623 11.0014 46.8983 11.0014 47.8738V105.4C11.0059 106.372 11.3974 107.304 12.0908 107.991C12.7842 108.679 13.7233 109.068 14.7039 109.072H155.296C156.277 109.068 157.216 108.679 157.909 107.991C158.603 107.304 158.994 106.372 158.999 105.4V47.8738C158.999 46.8983 158.609 45.9623 157.915 45.2709C157.221 44.5796 156.28 44.1893 155.296 44.1848H14.7039Z" fill="url(#paint0_linear_11_1749)"/>
<defs>
<linearGradient id="paint0_linear_11_1749" x1="17.6569" y1="-4.5232" x2="66.1369" y2="149.624" gradientUnits="userSpaceOnUse">
<stop stop-color="#437FEC"/>
<stop offset="0.38" stop-color="#356FD8"/>
<stop offset="1" stop-color="#184EAE"/>
</linearGradient>
</defs>
</svg>
