<svg width="170" height="123" viewBox="0 0 170 123" fill="none" xmlns="http://www.w3.org/2000/svg">
<path fill-rule="evenodd" clip-rule="evenodd" d="M16.4058 104.852C15.1592 104.842 13.9671 104.339 13.0906 103.452C12.214 102.566 11.7245 101.368 11.7293 100.121L12.156 4.95463C12.1654 3.70944 12.6654 2.51811 13.5476 1.63926C14.4297 0.760415 15.6229 0.265144 16.8682 0.260498C18.1148 0.269898 19.3069 0.772713 20.1834 1.65923C21.0599 2.54575 21.5494 3.74356 21.5447 4.99023L21.1002 100.157C21.0955 101.401 20.5993 102.592 19.72 103.471C18.8406 104.35 17.6494 104.847 16.4058 104.852ZM153.933 122.74L16.3567 122.277C15.1069 122.277 13.9084 121.781 13.0247 120.897C12.141 120.013 11.6446 118.815 11.6446 117.565C11.6446 116.316 12.141 115.117 13.0247 114.233C13.9084 113.35 15.1069 112.853 16.3567 112.853L153.933 113.333C155.13 113.407 156.254 113.935 157.076 114.809C157.898 115.683 158.355 116.837 158.355 118.036C158.355 119.236 157.898 120.391 157.076 121.264C156.254 122.138 155.13 122.666 153.933 122.74ZM30.244 104.372C30.5052 104.47 30.7828 104.518 31.062 104.514C31.5423 104.517 32.0121 104.372 32.4068 104.099C32.8015 103.825 33.1019 103.436 33.2669 102.985L43.7929 74.5388L62.8198 98.0055C62.9308 98.1428 63.0566 98.2668 63.1946 98.3754C63.2004 98.3886 63.2063 98.4018 63.2123 98.4149C63.472 98.9809 63.9444 99.4215 64.527 99.6413C64.7871 99.7458 65.0645 99.8002 65.3448 99.8015C65.8163 99.8081 66.2789 99.6726 66.6722 99.4125C67.0655 99.1525 67.3713 98.7797 67.5499 98.3433L87.4924 44.3076L102.704 64.3633C102.914 64.6391 103.182 64.865 103.489 65.0249C103.797 65.1847 104.136 65.2746 104.482 65.2879C105.026 65.3066 105.56 65.137 105.993 64.8078C106.242 64.6238 106.451 64.392 106.609 64.1262C106.767 63.8605 106.871 63.5659 106.914 63.2597C106.93 63.1475 106.937 63.0346 106.937 62.9218L124.522 16.6731C124.69 16.1014 124.636 15.4875 124.37 14.9539C124.105 14.4204 123.648 14.0065 123.091 13.7953C122.534 13.5841 121.917 13.5912 121.365 13.8148C120.813 14.0384 120.365 14.4624 120.112 15.0017L103.771 57.9783L88.9231 38.4021C88.5458 37.9045 87.9865 37.5772 87.3679 37.4921C86.7493 37.4071 86.1222 37.5716 85.6247 37.9488C85.3508 38.1565 85.1285 38.4193 84.9698 38.7167C84.8439 38.8076 84.7269 38.9109 84.6208 39.0252C84.4108 39.2516 84.2475 39.5171 84.1401 39.8066L64.5885 92.6998L45.145 68.7194C44.96 68.4508 44.7215 68.2232 44.4444 68.0513C44.1673 67.8793 43.8576 67.7666 43.5348 67.72C43.212 67.6735 42.8832 67.6941 42.5688 67.7808C42.2544 67.8675 41.9613 68.0182 41.7079 68.2236C41.6454 68.2743 41.5857 68.328 41.5288 68.3846C41.3737 68.4887 41.2312 68.6112 41.1046 68.7496C40.8954 68.9782 40.7336 69.246 40.6285 69.5375L28.8571 101.348C28.6438 101.933 28.6697 102.579 28.9294 103.145C29.189 103.711 29.6614 104.152 30.244 104.372Z" fill="url(#paint0_linear_11_1764)"/>
<defs>
<linearGradient id="paint0_linear_11_1764" x1="25.4822" y1="-4.43441" x2="82.6289" y2="150.283" gradientUnits="userSpaceOnUse">
<stop stop-color="#437FEC"/>
<stop offset="0.38" stop-color="#356FD8"/>
<stop offset="1" stop-color="#184EAE"/>
</linearGradient>
</defs>
</svg>
