<svg width="134" height="100" viewBox="0 0 134 100" fill="none" xmlns="http://www.w3.org/2000/svg">
<g clip-path="url(#clip0_11_1547)">
<path d="M23.8328 99.9997C19.0393 99.8101 15.425 98.4553 12.9901 95.9355C10.5551 93.4157 9.33754 89.2679 9.33754 83.4922V66.5919C9.33754 57.619 6.39169 52.6945 0.499991 51.8185V48.181C6.39619 47.3501 9.34204 42.7485 9.33754 34.3762V16.5343C9.33754 10.7767 10.5551 6.62894 12.9901 4.09107C15.425 1.55319 19.0393 0.198456 23.8328 0.0268555V4.8023C20.5111 4.99196 18.1706 6.07121 16.8113 8.0401C15.452 10.009 14.7769 13.3958 14.7859 18.2006V34.8504C14.7859 43.2543 12.0493 48.2916 6.57623 49.9625V50.1928C12.0493 51.9314 14.7859 57.2532 14.7859 66.1584V81.8395C14.7859 86.6488 15.461 90.0356 16.8113 92C18.1616 93.9644 20.5021 95.0437 23.8328 95.2378V99.9997Z" fill="#03224E"/>
<path d="M28.2683 6.94287H32.4271L37.3827 15.9316H37.5784L42.5272 6.94287H46.6725L39.3068 19.6774V27.2572H35.6476V19.6774L28.2683 6.94287Z" fill="#03224E"/>
<path d="M52.911 27.5556C51.5606 27.588 50.2272 27.2483 49.0559 26.5734C47.9688 25.9187 47.0922 24.9641 46.5309 23.8233C45.9392 22.5279 45.6329 21.1197 45.6329 19.6947C45.6329 18.2698 45.9392 16.8616 46.5309 15.5662C47.0883 14.421 47.9656 13.4631 49.0559 12.8093C50.2399 12.1666 51.5648 11.8301 52.911 11.8301C54.2571 11.8301 55.582 12.1666 56.766 12.8093C57.8548 13.4649 58.7317 14.4223 59.291 15.5662C59.8784 16.8628 60.1823 18.2705 60.1823 19.6947C60.1823 21.119 59.8784 22.5267 59.291 23.8233C58.7275 24.9625 57.8515 25.9166 56.766 26.5734C55.5939 27.2464 54.2611 27.586 52.911 27.5556ZM52.911 24.6768C53.6454 24.703 54.3646 24.4625 54.9364 23.9994C55.4987 23.5222 55.9191 22.8988 56.1516 22.1976C56.6829 20.5577 56.6829 18.7911 56.1516 17.1512C55.9176 16.447 55.4976 15.8196 54.9364 15.3359C54.3646 14.8728 53.6454 14.6322 52.911 14.6585C52.1775 14.6388 51.4605 14.8786 50.8856 15.3359C50.3201 15.8159 49.8993 16.4445 49.6703 17.1512C49.13 18.7897 49.13 20.5592 49.6703 22.1976C49.8976 22.9013 50.319 23.5261 50.8856 23.9994C51.4659 24.4612 52.1909 24.7013 52.9312 24.6768H52.911Z" fill="#03224E"/>
<path d="M72.8883 20.8496V12.0438H76.4665V27.2778H72.9963V24.5683H72.8343C72.4931 25.4178 71.908 26.1463 71.1532 26.6614C70.299 27.2246 69.2919 27.5085 68.2704 27.4742C67.3477 27.4921 66.4376 27.2579 65.6373 26.7969C64.8633 26.3365 64.2412 25.6582 63.8482 24.846C63.3977 23.8733 63.1782 22.8091 63.2069 21.7369V12.0234H66.7851V21.1679C66.7414 22.0072 67.0246 22.8306 67.575 23.4642C67.8402 23.7479 68.1632 23.9709 68.522 24.1182C68.8808 24.2655 69.2671 24.3335 69.6544 24.3177C70.1889 24.3159 70.715 24.1834 71.1869 23.9316C71.689 23.6635 72.1108 23.266 72.4089 22.7801C72.7458 22.1943 72.9119 21.5254 72.8883 20.8496Z" fill="#03224E"/>
<path d="M80.1392 27.2575V12.0234H83.6095V14.5636H83.7715C84.0069 13.7457 84.5084 13.0303 85.196 12.5315C85.8726 12.052 86.6835 11.8006 87.5118 11.8135H88.1869C88.3952 11.8267 88.6025 11.8516 88.808 11.888V15.1935C88.5746 15.1229 88.335 15.0753 88.0924 15.0513C87.7793 15.0061 87.4634 14.9834 87.1472 14.9835C86.5362 14.9737 85.9326 15.1181 85.3918 15.4035C84.8869 15.6737 84.4645 16.0764 84.1698 16.5686C83.8669 17.0903 83.7127 17.6855 83.7242 18.2891V27.2439L80.1392 27.2575Z" fill="#03224E"/>
<path d="M36.5118 60.7669H29.6524V40.4458H36.6468C38.4506 40.3935 40.2371 40.8112 41.8319 41.6583C43.2679 42.4582 44.4302 43.674 45.1671 45.1467C45.9371 46.8572 46.3353 48.7125 46.3353 50.5894C46.3353 52.4662 45.9371 54.3216 45.1671 56.0321C44.4209 57.5152 43.2439 58.7363 41.7914 59.534C40.1652 60.3902 38.3477 60.8146 36.5118 60.7669ZM33.3184 57.5832H36.3295C37.5532 57.6271 38.768 57.3591 39.8605 56.8043C40.8078 56.2862 41.5561 55.4664 41.9872 54.4741C42.9325 51.9758 42.9325 49.2165 41.9872 46.7182C41.5572 45.7391 40.8198 44.9279 39.8875 44.4084C38.8234 43.8635 37.6383 43.6 36.4443 43.6429H33.3184V57.5832Z" fill="#03224E"/>
<path d="M56.3744 61.0646C55.0013 61.1006 53.6433 60.771 52.4384 60.1095C51.3421 59.478 50.4565 58.5353 49.8931 57.4C49.3034 56.0993 48.9983 54.6869 48.9983 53.2579C48.9983 51.829 49.3034 50.4166 49.8931 49.1158C50.4513 47.9723 51.3194 47.0098 52.3979 46.3386C53.5419 45.6559 54.8546 45.3107 56.1854 45.3429C57.0895 45.337 57.9876 45.4907 58.8387 45.7967C59.6676 46.0947 60.4229 46.5683 61.0531 47.1853C61.7265 47.8636 62.2428 48.6823 62.5654 49.5832C62.9588 50.6911 63.1464 51.862 63.119 53.0378V54.1419H50.656V51.7169H59.6691C59.6728 51.0785 59.5223 50.4486 59.2302 49.8813C58.9501 49.3524 58.5295 48.9116 58.015 48.6078C57.4689 48.2876 56.8448 48.1258 56.2124 48.1404C55.5316 48.1275 54.8615 48.3109 54.2815 48.6688C53.7457 49.0053 53.3024 49.4711 52.992 50.0235C52.6875 50.6043 52.5276 51.2504 52.5261 51.9066V54.0132C52.504 54.8 52.6707 55.5806 53.0122 56.2892C53.3059 56.8982 53.7767 57.4036 54.3625 57.7387C54.9814 58.0831 55.6804 58.2561 56.3879 58.24C56.8675 58.2466 57.3447 58.171 57.799 58.0165C58.2096 57.8718 58.5848 57.6409 58.8994 57.3391C59.205 57.0351 59.4361 56.6641 59.5746 56.2553L62.9503 56.6347C62.7492 57.4956 62.336 58.2921 61.7485 58.9512C61.1242 59.6303 60.3495 60.1524 59.4868 60.4753C58.4946 60.8632 57.4392 61.063 56.3744 61.0646Z" fill="#03224E"/>
<path d="M79.2683 45.5327L73.8672 60.7667H69.9177L64.5166 45.5327H68.3311L71.8215 56.8515H71.9768L75.4808 45.5327H79.2683Z" fill="#03224E"/>
<path d="M99.9883 50.6132C100.044 52.557 99.6243 54.4849 98.7663 56.2286C98.023 57.7151 96.8702 58.9564 95.4446 59.8051C93.9898 60.6202 92.3512 61.0481 90.6849 61.0481C89.0186 61.0481 87.38 60.6202 85.9252 59.8051C84.5037 58.9514 83.3521 57.7114 82.6035 56.2286C81.8041 54.4664 81.3904 52.5527 81.3904 50.6166C81.3904 48.6805 81.8041 46.7668 82.6035 45.0046C83.3521 43.5218 84.5037 42.2818 85.9252 41.4281C87.3806 40.6149 89.0189 40.188 90.6849 40.188C92.3508 40.188 93.9892 40.6149 95.4446 41.4281C96.8702 42.2768 98.023 43.5181 98.7663 45.0046C99.624 46.746 100.044 48.6716 99.9883 50.6132ZM96.302 50.6132C96.3428 49.2764 96.0988 47.9462 95.5864 46.7116C95.1754 45.7295 94.485 44.8907 93.6015 44.3001C92.7224 43.7643 91.7135 43.4809 90.6849 43.4809C89.6563 43.4809 88.6474 43.7643 87.7683 44.3001C86.8873 44.8917 86.1993 45.7304 85.7901 46.7116C84.8359 49.2246 84.8359 52.0018 85.7901 54.5149C86.1993 55.496 86.8873 56.3347 87.7683 56.9263C88.6474 57.4622 89.6563 57.7455 90.6849 57.7455C91.7135 57.7455 92.7224 57.4622 93.6015 56.9263C94.485 56.3357 95.1754 55.4969 95.5864 54.5149C96.0976 53.2798 96.3416 51.9499 96.302 50.6132Z" fill="#03224E"/>
<path d="M103.317 66.4768V45.5326H106.834V48.0524H107.043C107.262 47.6306 107.525 47.2333 107.827 46.867C108.196 46.4164 108.656 46.0493 109.177 45.79C109.861 45.4621 110.614 45.3063 111.371 45.3361C112.493 45.3216 113.596 45.6346 114.544 46.237C115.534 46.8816 116.316 47.7989 116.799 48.8788C117.395 50.2294 117.681 51.697 117.636 53.1733C117.677 54.6369 117.395 56.0916 116.813 57.434C116.341 58.5326 115.565 59.4728 114.578 60.1434C113.625 60.7595 112.512 61.08 111.378 61.0646C110.633 61.0908 109.893 60.9399 109.217 60.6243C108.702 60.3645 108.244 60.0054 107.867 59.5676C107.558 59.2071 107.289 58.8142 107.064 58.3958H106.915V66.5242L103.317 66.4768ZM106.827 53.153C106.808 54.0339 106.95 54.911 107.246 55.7405C107.481 56.4197 107.902 57.0185 108.461 57.4678C109.016 57.8894 109.697 58.1091 110.392 58.091C111.11 58.1141 111.814 57.8867 112.384 57.4475C112.94 56.9857 113.358 56.3785 113.592 55.6931C113.876 54.877 114.016 54.0173 114.004 53.153C114.019 52.2956 113.882 51.4423 113.599 50.6331C113.367 49.9541 112.948 49.3551 112.391 48.9059C111.81 48.5063 111.123 48.2924 110.419 48.2924C109.715 48.2924 109.028 48.5063 108.448 48.9059C107.889 49.3445 107.467 49.9345 107.232 50.6061C106.946 51.4239 106.807 52.2862 106.821 53.153H106.827Z" fill="#03224E"/>
<path d="M132.699 49.5631L129.438 49.9153C129.337 49.5788 129.174 49.2641 128.958 48.9873C128.71 48.6917 128.395 48.4596 128.04 48.31C127.513 48.0994 126.945 48.0095 126.379 48.047C125.812 48.0845 125.261 48.2484 124.766 48.5267C124.539 48.6492 124.35 48.831 124.218 49.0528C124.086 49.2747 124.016 49.5283 124.016 49.7866C124.007 49.9935 124.047 50.1997 124.133 50.3881C124.218 50.5766 124.347 50.7419 124.509 50.8704C125.005 51.2144 125.569 51.4455 126.163 51.5478L128.749 52.1033C129.935 52.289 131.048 52.8 131.963 53.5799C132.311 53.9204 132.585 54.3298 132.768 54.7823C132.95 55.2347 133.037 55.7203 133.023 56.2081C133.031 57.1223 132.737 58.0134 132.186 58.7415C131.591 59.5086 130.8 60.0987 129.897 60.4484C128.825 60.8807 127.676 61.0904 126.521 61.0648C124.941 61.1403 123.375 60.7316 122.031 59.893C121.481 59.522 121.016 59.0377 120.667 58.4725C120.318 57.9072 120.093 57.2739 120.006 56.6145L123.497 56.2758C123.617 56.9065 123.978 57.4653 124.503 57.8338C125.108 58.2116 125.815 58.3937 126.528 58.3554C127.24 58.3865 127.945 58.205 128.553 57.8338C128.783 57.7018 128.975 57.5129 129.111 57.2852C129.247 57.0574 129.322 56.7986 129.33 56.5332C129.335 56.3263 129.292 56.121 129.205 55.9331C129.119 55.7453 128.99 55.5798 128.83 55.4495C128.377 55.1014 127.846 54.869 127.284 54.7721L124.692 54.2234C123.486 54.041 122.361 53.5062 121.458 52.6858C121.11 52.319 120.84 51.886 120.663 51.4124C120.485 50.9389 120.404 50.4344 120.425 49.9289C120.397 49.0509 120.666 48.1893 121.188 47.4836C121.751 46.7602 122.5 46.2051 123.355 45.8782C124.377 45.481 125.466 45.2877 126.562 45.3092C128.059 45.2234 129.544 45.6249 130.795 46.454C131.812 47.1992 132.496 48.3161 132.699 49.5631Z" fill="#03224E"/>
<path d="M29.6524 73.9688H34.1353L40.1508 88.6879H40.3871L46.3958 73.9688H50.8855V94.2898H47.3613V80.3225H47.1723L41.5821 94.2153H38.949L33.3589 80.3225H33.1699V94.3101H29.6524V73.9688Z" fill="#03224E"/>
<path d="M61.4581 94.547C60.085 94.5839 58.7267 94.2544 57.5221 93.592C56.4243 92.9624 55.5383 92.0192 54.9768 90.8825C54.3895 89.5823 54.0856 88.1713 54.0856 86.7438C54.0856 85.3163 54.3895 83.9052 54.9768 82.6051C55.5347 81.4592 56.4057 80.496 57.4883 79.8279C58.6282 79.1405 59.9395 78.7928 61.2691 78.8253C62.173 78.8217 63.0707 78.9753 63.9224 79.2792C64.7538 79.5754 65.5099 80.0518 66.1368 80.6746C66.8122 81.3499 67.3308 82.1663 67.6559 83.0657C68.0499 84.1758 68.2376 85.349 68.2095 86.527V87.6244H55.7465V85.2062H64.7596C64.7643 84.5646 64.6112 83.9318 64.314 83.3637C64.0326 82.8379 63.6151 82.398 63.1055 82.0902C62.5318 81.7724 61.8849 81.6113 61.2297 81.6232C60.5744 81.6351 59.9338 81.8195 59.3719 82.158C58.8316 82.4889 58.387 82.956 58.0825 83.5127C57.777 84.0907 57.617 84.7348 57.6166 85.389V87.5024C57.5838 88.2966 57.7437 89.0869 58.0825 89.8055C58.3826 90.4101 58.8518 90.9138 59.4327 91.255C60.0527 91.5967 60.751 91.7695 61.4581 91.7563C61.9399 91.7629 62.4193 91.6873 62.8759 91.5328C63.2836 91.386 63.6561 91.1552 63.9696 90.8554C64.2767 90.5552 64.5081 90.1861 64.6448 89.7784L68.0204 90.1509C67.8444 91.0267 67.4442 91.8414 66.8592 92.5149C66.238 93.196 65.4654 93.7204 64.6043 94.0458C63.5958 94.4078 62.5288 94.5778 61.4581 94.547Z" fill="#03224E"/>
<path d="M74.7922 85.355V94.2828H71.2139V79.0487H74.6369V81.6363H74.8124C75.1463 80.8007 75.7316 80.0904 76.4868 79.6042C77.3442 79.0763 78.3371 78.8125 79.3426 78.8455C80.2998 78.8255 81.2453 79.0591 82.0836 79.5229C82.8687 79.9778 83.5009 80.6569 83.8998 81.4737C84.3697 82.4409 84.6012 83.5072 84.5749 84.5828V94.2828H80.9967V85.1383C81.0496 84.269 80.7667 83.4127 80.2068 82.7472C79.93 82.4535 79.5927 82.2238 79.2184 82.074C78.8442 81.9243 78.4419 81.8581 78.0396 81.8801C77.4575 81.8713 76.8831 82.0136 76.372 82.2933C75.8867 82.5689 75.4924 82.981 75.2377 83.4787C74.9356 84.0571 74.7824 84.7021 74.7922 85.355Z" fill="#03224E"/>
<path d="M95.7687 79.049V81.8262H87.0391V79.049H95.7687ZM89.1929 75.3979H92.7711V89.6972C92.749 90.0784 92.8257 90.4588 92.9939 90.8013C93.1207 91.0405 93.3293 91.2257 93.5813 91.3229C93.8401 91.4205 94.1149 91.4688 94.3915 91.4652C94.5997 91.4657 94.8076 91.4476 95.0126 91.411C95.1582 91.3904 95.3026 91.361 95.4447 91.3229L96.0455 94.134C95.8565 94.195 95.5797 94.2695 95.2286 94.3508C94.8042 94.4377 94.3723 94.483 93.9391 94.4862C93.1116 94.525 92.2853 94.3864 91.5153 94.0798C90.8197 93.7928 90.2267 93.3017 89.814 92.6709C89.3721 91.9596 89.1556 91.1306 89.1929 90.2933V75.3979Z" fill="#03224E"/>
<path d="M105.227 94.5473C103.878 94.5822 102.544 94.2448 101.372 93.5719C100.285 92.9172 99.4086 91.9625 98.8473 90.8218C98.2555 89.5252 97.9491 88.1159 97.9491 86.6898C97.9491 85.2638 98.2555 83.8544 98.8473 82.5579C99.4085 81.4153 100.285 80.4584 101.372 79.801C102.556 79.1583 103.881 78.8218 105.227 78.8218C106.573 78.8218 107.898 79.1583 109.082 79.801C110.17 80.4584 111.046 81.4153 111.607 82.5579C112.199 83.8544 112.506 85.2638 112.506 86.6898C112.506 88.1159 112.199 89.5252 111.607 90.8218C111.046 91.9625 110.17 92.9172 109.082 93.5719C107.91 94.2448 106.577 94.5822 105.227 94.5473ZM105.227 91.6753C105.961 91.6997 106.68 91.4594 107.253 90.9979C107.813 90.5203 108.231 89.8968 108.461 89.1961C108.735 88.3848 108.87 87.5328 108.86 86.6763C108.869 85.8154 108.735 84.959 108.461 84.1429C108.228 83.4421 107.81 82.8173 107.253 82.3343C106.68 81.8728 105.961 81.6325 105.227 81.6569C104.494 81.6384 103.777 81.8781 103.202 82.3343C102.642 82.8169 102.223 83.4416 101.987 84.1429C101.713 84.959 101.579 85.8154 101.588 86.6763C101.578 87.5328 101.713 88.3848 101.987 89.1961C102.219 89.8973 102.64 90.5207 103.202 90.9979C103.779 91.4684 104.504 91.7181 105.248 91.7024L105.227 91.6753Z" fill="#03224E"/>
<path d="M115.53 94.2831V79.0491H118.993V81.5892H119.155C119.389 80.7704 119.891 80.0545 120.58 79.5571C121.256 79.0757 122.067 78.8219 122.896 78.8323H123.571C123.777 78.8455 123.982 78.8704 124.185 78.9068V82.2124C123.952 82.1414 123.712 82.0916 123.47 82.0634C123.156 82.0235 122.84 82.0031 122.524 82.0024C121.914 81.9935 121.31 82.1378 120.769 82.4224C120.265 82.6945 119.844 83.0967 119.547 83.5875C119.245 84.1094 119.094 84.7049 119.108 85.308V94.2628L115.53 94.2831Z" fill="#03224E"/>
</g>
<defs>
<clipPath id="clip0_11_1547">
<rect width="132.523" height="100" fill="white" transform="translate(0.5)"/>
</clipPath>
</defs>
</svg>
